<svg width="500" height="100" viewBox="0 0 500 100" fill="none" xmlns="http://www.w3.org/2000/svg">
<g clip-path="url(#clip0_2_11)">
<path d="M35.9902 0.369324C39.3594 0.369324 42.7962 0.677266 46.3028 1.29315C49.8084 1.90903 53.2192 2.84742 56.5332 4.10624C59.8473 5.36506 62.9698 6.94638 65.9008 8.84917C68.8308 10.752 71.3912 12.9762 73.5833 15.5219C75.7742 18.0687 77.5072 20.9421 78.7802 24.1464C80.0542 27.3496 80.6901 30.8951 80.6901 34.7818C80.6901 38.6696 80.0052 42.2702 78.6355 45.5817C77.2657 48.8951 75.3485 51.7561 72.8838 54.1645C70.4191 56.5739 67.4746 58.4622 64.0512 59.8313C60.6269 61.1993 56.8611 61.8849 52.7529 61.8849C50.8076 61.8849 48.7946 61.7413 46.7129 61.4532C44.6312 61.166 42.5496 60.7207 40.4679 60.1184C38.3862 59.516 36.3389 58.7701 34.3259 57.8806C32.3129 56.9911 30.3884 55.93 28.5534 54.6982C26.3895 56.833 23.8904 58.4965 21.0552 59.6877C18.2199 60.8789 15.2275 61.474 12.0779 61.474C10.3793 61.474 8.79094 61.2825 7.3119 60.8997C5.83287 60.5158 4.55264 59.9686 3.47016 59.257C2.38769 58.5454 1.5394 57.6829 0.923225 56.6696C0.308089 55.6574 0 54.5338 0 53.3021C0 52.2347 0.267496 51.2359 0.801447 50.3048C1.3354 49.3737 2.08793 48.5529 3.06111 47.8402C4.03326 47.1286 5.19796 46.5669 6.55313 46.157C7.90935 45.746 9.39463 45.5411 11.0111 45.5411C15.7771 45.5411 21.4195 47.2941 27.9382 50.7979C29.1435 49.2926 30.1292 47.5947 30.8963 45.7055C31.7446 43.5977 32.4097 41.4286 32.8895 39.1971C33.3683 36.9655 33.793 34.7413 34.1635 32.5233C34.533 30.3063 34.916 28.1434 35.3136 26.0346C35.7102 23.9269 36.2587 21.9419 36.9571 20.0807C37.6555 18.2196 38.5725 16.5155 39.7101 14.9674C40.8467 13.4215 42.3331 12.1002 44.1681 11.0048C44.4418 10.8685 44.6885 10.7998 44.9071 10.7998C45.2901 10.7998 45.6533 10.9371 45.9958 11.2108C46.3382 11.4854 46.5089 11.8683 46.5089 12.3603C46.5089 12.9356 46.2487 13.3736 45.7283 13.6743C44.2763 14.5232 43.0918 15.5833 42.1749 16.8567C41.2568 18.1301 40.497 19.5606 39.8944 21.1481C39.2917 22.7357 38.8119 24.4471 38.457 26.2812C38.1 28.1153 37.7586 30.0316 37.4297 32.0301C37.1549 33.6728 36.8541 35.3904 36.5252 37.184C36.1963 38.9776 35.7862 40.7576 35.2928 42.523C34.7995 44.2885 34.176 46.0134 33.4235 47.6977C32.6699 49.381 31.7456 50.9353 30.6496 52.3585C30.7038 52.3855 30.7381 52.4063 30.7527 52.4198C30.7662 52.4344 30.8005 52.4542 30.8557 52.4812C34.3342 54.5619 37.949 56.1359 41.7023 57.2044C45.4545 58.2718 49.1245 58.8065 52.7134 58.8065C56.6019 58.8065 60.0877 58.1636 63.1696 56.8767C66.2505 55.5908 68.8599 53.8586 70.9968 51.6822C73.1326 49.5058 74.7625 46.9664 75.8856 44.0648C77.0087 41.1633 77.5697 38.0974 77.5697 34.8661C77.5697 31.5807 77.0211 28.521 75.9262 25.6882C74.8302 22.8543 73.3314 20.2742 71.4277 17.948C69.5229 15.6218 67.2643 13.5536 64.6487 11.7476C62.033 9.94049 59.2113 8.42887 56.1856 7.20959C53.1588 5.99239 49.9822 5.06128 46.6536 4.4173C43.326 3.77437 39.9912 3.4529 36.6501 3.4529C32.1578 3.4529 28.0559 3.82951 24.3453 4.58168C20.6336 5.33489 17.4434 6.43661 14.7726 7.88685C12.1029 9.33813 10.0275 11.1171 8.54842 13.2249C7.06939 15.3336 6.33039 17.7285 6.33039 20.4116C6.33039 21.945 6.55625 23.3006 7.00798 24.4772C7.4597 25.6539 8.03529 26.6734 8.73369 27.5358C9.4321 28.3983 10.1898 29.1296 11.0111 29.731C11.8333 30.3333 12.5994 30.8192 13.3123 31.1885C14.0243 31.5578 14.6332 31.8252 15.1401 31.9896C15.6459 32.1539 15.9415 32.2496 16.0237 32.2767C16.3797 32.3589 16.6607 32.5441 16.8658 32.8312C17.0708 33.1183 17.1739 33.4408 17.1739 33.7966C17.1739 34.2627 17.0094 34.6185 16.6805 34.864C16.3526 35.1106 15.9956 35.2333 15.6126 35.2333C15.0641 35.2333 14.3792 35.1033 13.558 34.8432C12.7357 34.5831 11.8666 34.1857 10.9486 33.652C10.0306 33.1183 9.1136 32.4473 8.19558 31.64C7.27756 30.8327 6.44905 29.8818 5.71005 28.7863C4.97105 27.6919 4.37465 26.4456 3.92293 25.0494C3.47016 23.6533 3.24534 22.1073 3.24534 20.4095C3.24534 17.3165 4.03222 14.5315 5.60805 12.0534C7.18284 9.57637 9.40816 7.47488 12.285 5.74999C15.1609 4.02509 18.605 2.69761 22.6175 1.76651C26.6289 0.835398 31.0868 0.369324 35.9902 0.369324ZM25.7192 53.1387C22.8704 51.6333 20.2277 50.4973 17.79 49.7305C15.3524 48.9649 13.1198 48.581 11.0933 48.581C9.94315 48.581 8.88149 48.711 7.90935 48.9711C6.93616 49.2312 6.09412 49.5807 5.38219 50.0177C4.66921 50.4557 4.1082 50.9623 3.69811 51.5366C3.28801 52.1109 3.08089 52.7143 3.08089 53.3437C3.08089 53.946 3.26616 54.5484 3.63566 55.1507C4.00515 55.7531 4.56617 56.2868 5.31974 56.7529C6.0733 57.2189 7.0111 57.6018 8.13417 57.9025C9.25723 58.2042 10.5718 58.354 12.0779 58.354C14.6519 58.354 17.1104 57.8962 19.4523 56.9786C21.7952 56.061 23.8842 54.7804 25.7192 53.1387Z" fill="#CC8DB4"/>
<path d="M116.886 49.3196C116.777 49.5391 116.551 49.9969 116.209 50.6949C115.866 51.393 115.428 52.193 114.894 53.0971C114.36 54.0001 113.737 54.9448 113.025 55.931C112.312 56.9162 111.519 57.8203 110.641 58.6411C109.765 59.463 108.82 60.1402 107.807 60.6739C106.793 61.2076 105.725 61.475 104.602 61.475C103.014 61.475 101.678 60.9684 100.596 59.9561C99.5137 58.9438 98.7269 57.6705 98.2335 56.137C97.3019 57.6975 96.1924 58.9366 94.9059 59.8531C93.6184 60.7707 92.3309 61.2284 91.0444 61.2284C90.0306 61.2284 89.1137 61.0433 88.2914 60.6739C87.4691 60.3046 86.7718 59.7844 86.1962 59.1134C85.6206 58.4424 85.1751 57.6559 84.8608 56.7518C84.5454 55.8478 84.3882 54.8626 84.3882 53.7952C84.3882 51.6604 84.7505 49.7784 85.477 48.1492C86.2024 46.5211 87.1267 45.1582 88.2508 44.0628C89.3739 42.9683 90.6135 42.1464 91.9687 41.5992C93.3239 41.052 94.6322 40.7773 95.8926 40.7773C96.7409 40.7773 97.5216 40.8939 98.2345 41.1259C98.9465 41.3589 99.5554 41.6127 100.062 41.8853C100.569 42.1589 100.959 42.4128 101.233 42.6448C101.507 42.8778 101.658 43.0078 101.685 43.0349C101.987 43.3907 102.138 43.7611 102.138 44.1439C102.138 44.5548 101.987 44.9179 101.685 45.2321C101.383 45.5473 101.028 45.7044 100.617 45.7044C100.179 45.7044 99.8083 45.5536 99.5075 45.2529C99.4523 45.1978 99.3295 45.0958 99.138 44.945C98.9465 44.7952 98.6863 44.637 98.3574 44.4726C98.0295 44.3083 97.6392 44.1647 97.1864 44.0409C96.7347 43.9171 96.2216 43.8557 95.646 43.8557C94.7966 43.8557 93.8922 44.0482 92.9346 44.431C91.976 44.8149 91.0996 45.41 90.3054 46.2173C89.5102 47.0257 88.8472 48.0379 88.3122 49.2562C87.7783 50.4744 87.5108 51.9194 87.5108 53.5892C87.5108 54.1094 87.5649 54.6358 87.6752 55.1705C87.7845 55.7042 87.976 56.1911 88.2508 56.628C88.5245 57.066 88.894 57.4229 89.3593 57.6954C89.8245 57.969 90.4001 58.1064 91.085 58.1064C91.5784 58.1064 92.1467 57.942 92.7899 57.6132C93.4331 57.2855 94.0493 56.7789 94.6384 56.0943C95.2276 55.4108 95.7615 54.5484 96.2413 53.507C96.7201 52.4667 97.0563 51.2349 97.2478 49.8117C97.3019 49.4289 97.4799 49.1074 97.7818 48.8463C98.0826 48.5862 98.4385 48.4561 98.8497 48.4561C99.2337 48.4561 99.5689 48.607 99.8562 48.9076C100.143 49.2093 100.301 49.5516 100.329 49.9345C100.356 50.4546 100.411 51.187 100.493 52.1317C100.575 53.0763 100.76 54.0147 101.048 54.9448C101.335 55.8759 101.767 56.6832 102.343 57.3677C102.918 58.0523 103.711 58.3945 104.726 58.3945C105.383 58.3945 106.034 58.2166 106.678 57.8608C107.321 57.5061 107.952 57.0338 108.568 56.4439C109.184 55.8561 109.773 55.1851 110.334 54.4319C110.895 53.6797 111.409 52.9192 111.875 52.1535C112.34 51.3868 112.751 50.6481 113.107 49.9355C113.463 49.2239 113.764 48.608 114.011 48.0878C114.147 47.7872 114.346 47.5541 114.607 47.3898C114.867 47.2254 115.147 47.1432 115.449 47.1432C115.914 47.1432 116.291 47.3149 116.578 47.6571C116.866 47.9994 117.01 48.3625 117.01 48.7453C117.009 48.9368 116.969 49.1282 116.886 49.3196Z" fill="#CC8DB4"/>
<path d="M123.172 57.0806C123.61 56.1776 124.117 55.1851 124.692 54.1042C125.267 53.0222 125.883 51.9278 126.54 50.8188C127.198 49.7108 127.889 48.608 128.616 47.5136C129.341 46.4191 130.101 45.3778 130.895 44.3925C131.689 43.4344 132.491 42.7436 133.298 42.3181C134.106 41.8947 134.866 41.6814 135.579 41.6814C137.003 41.6814 138.057 42.2016 138.743 43.2419C139.427 44.2823 139.77 45.5692 139.77 47.1016C139.77 47.4574 139.749 47.8891 139.708 48.3958C139.667 48.9024 139.626 49.4424 139.585 50.0177C139.544 50.593 139.503 51.1746 139.461 51.7634C139.421 52.3522 139.4 52.9067 139.4 53.4269C139.4 54.0834 139.434 54.7138 139.503 55.3151C139.57 55.9175 139.702 56.4439 139.893 56.8964C140.085 57.348 140.358 57.7038 140.715 57.9638C141.071 58.2239 141.538 58.354 142.112 58.354C143.153 58.354 144.167 57.9503 145.152 57.143C146.138 56.3357 147.049 55.3775 147.885 54.2685C148.719 53.1595 149.446 52.0308 150.062 50.8812C150.678 49.7316 151.137 48.8005 151.438 48.0878C151.574 47.7872 151.773 47.5542 152.033 47.3898C152.294 47.2254 152.575 47.1432 152.877 47.1432C153.342 47.1432 153.719 47.3149 154.006 47.6571C154.293 47.9994 154.437 48.3625 154.437 48.7453C154.437 48.9378 154.396 49.1292 154.314 49.3207C154.205 49.5402 153.985 49.9917 153.657 50.6752C153.328 51.3597 152.897 52.1473 152.362 53.0368C151.828 53.9263 151.205 54.8709 150.493 55.8707C149.78 56.8704 148.993 57.7797 148.13 58.6016C147.267 59.4234 146.336 60.108 145.336 60.6552C144.336 61.2024 143.288 61.4771 142.192 61.4771C140.96 61.4771 139.96 61.2378 139.194 60.7592C138.427 60.2807 137.824 59.6502 137.386 58.87C136.948 58.0897 136.652 57.2273 136.502 56.2826C136.351 55.338 136.276 54.3871 136.276 53.429C136.276 53.018 136.297 52.553 136.339 52.0328C136.379 51.5127 136.434 50.9654 136.503 50.3901C136.571 49.8148 136.626 49.2406 136.668 48.6652C136.709 48.0899 136.73 47.5427 136.73 47.0225C136.73 46.1466 136.593 45.5504 136.319 45.2363C136.045 44.9221 135.798 44.7639 135.58 44.7639C135.142 44.7639 134.641 45.0178 134.08 45.5234C133.518 46.03 132.93 46.6938 132.314 47.5157C131.698 48.3375 131.067 49.2603 130.425 50.2871C129.78 51.314 129.178 52.3345 128.617 53.3468C128.055 54.3601 127.534 55.3245 127.055 56.2421C126.576 57.1597 126.199 57.9191 125.926 58.5215C125.378 59.671 124.83 60.4451 124.283 60.8414C123.734 61.2378 123.173 61.4365 122.598 61.4365C121.803 61.4365 121.167 61.1972 120.689 60.7187C120.209 60.2401 119.969 59.5628 119.969 58.6858C119.969 58.4944 119.996 58.1178 120.052 57.5571C120.106 56.9963 120.174 56.3253 120.257 55.545C120.339 54.7648 120.421 53.9231 120.503 53.0191C120.586 52.1161 120.668 51.2193 120.75 50.3298C120.832 49.4413 120.9 48.6122 120.955 47.8455C121.009 47.0798 121.037 46.4358 121.037 45.9156C121.037 45.2311 121.009 44.5746 120.955 43.9442C120.9 43.3148 120.791 42.9309 120.626 42.7946C120.379 42.8768 119.941 43.3897 119.312 44.3343C118.682 45.2789 117.874 46.9414 116.887 49.3238C116.75 49.6255 116.544 49.8575 116.271 50.0219C115.997 50.1862 115.709 50.2684 115.408 50.2684C114.942 50.2684 114.573 50.1113 114.299 49.7961C114.025 49.4819 113.888 49.1188 113.888 48.7079C113.888 48.5165 113.928 48.3115 114.011 48.092C115.243 45.1634 116.399 43.0068 117.482 41.6242C118.563 40.2416 119.638 39.5508 120.707 39.5508C121.337 39.5508 121.871 39.7089 122.31 40.0231C122.747 40.3383 123.097 40.7565 123.357 41.2757C123.617 41.7958 123.809 42.3712 123.933 43.0006C124.056 43.631 124.118 44.2739 124.118 44.9304C124.118 45.4235 124.083 46.1892 124.015 47.2296C123.946 48.2699 123.857 49.3852 123.748 50.5764C123.638 51.7675 123.535 52.9515 123.439 54.1291C123.343 55.3016 123.254 56.2868 123.172 57.0806Z" fill="#CC8DB4"/>
<path d="M158.177 28.5408C158.177 29.5812 157.813 30.4644 157.088 31.1895C156.361 31.9146 155.479 32.2777 154.438 32.2777C153.397 32.2777 152.513 31.9146 151.788 31.1895C151.062 30.4644 150.699 29.5812 150.699 28.5408C150.699 28.0206 150.795 27.5348 150.986 27.0833C151.178 26.6318 151.444 26.2354 151.788 25.8921C152.13 25.5498 152.527 25.2835 152.98 25.091C153.431 24.8996 153.917 24.8039 154.438 24.8039C154.958 24.8039 155.444 24.9006 155.896 25.091C156.348 25.2835 156.744 25.5498 157.088 25.8921C157.43 26.2344 157.697 26.6307 157.889 27.0833C158.08 27.5338 158.177 28.0206 158.177 28.5408ZM151.52 52.604C151.52 48.6611 151.767 44.7338 152.259 40.8179C152.313 40.4351 152.485 40.099 152.772 39.8119C153.06 39.5248 153.437 39.3802 153.902 39.3802C154.313 39.3802 154.655 39.5383 154.929 39.8525C155.203 40.1677 155.34 40.5297 155.34 40.9407C155.34 41.1051 155.306 41.5982 155.237 42.419C155.168 43.2398 155.086 44.2188 154.991 45.3549C154.894 46.4909 154.813 47.6956 154.744 48.969C154.675 50.2424 154.641 51.4128 154.641 52.4802C154.641 53.9325 154.784 55.1018 155.072 55.9913C155.359 56.8808 155.73 57.5727 156.181 58.0658C156.633 58.5589 157.113 58.8866 157.619 59.051C158.126 59.2154 158.612 59.2976 159.077 59.2976C159.843 59.2976 160.638 59.0239 161.46 58.4757C162.283 57.9285 163.125 57.1617 163.988 56.1765C164.85 55.1913 165.72 54.0074 166.596 52.6237C167.472 51.2422 168.335 49.7014 169.184 48.0046C169.321 47.731 169.513 47.5188 169.76 47.3679C170.007 47.2171 170.28 47.1422 170.581 47.1422C171.019 47.1422 171.383 47.3065 171.67 47.6353C171.957 47.964 172.102 48.3198 172.102 48.7027C172.102 48.9763 172.047 49.2093 171.937 49.4008C171.609 50.0312 171.198 50.7969 170.705 51.6999C170.212 52.604 169.651 53.5351 169.021 54.4932C168.39 55.4514 167.699 56.4023 166.946 57.3469C166.192 58.2915 165.391 59.1405 164.542 59.8926C163.693 60.6458 162.803 61.2544 161.872 61.7195C160.94 62.1845 159.995 62.4175 159.036 62.4175C157.804 62.4175 156.721 62.1575 155.791 61.6373C154.859 61.1171 154.071 60.419 153.428 59.5431C152.784 58.6671 152.304 57.634 151.99 56.4429C151.678 55.2527 151.52 53.9731 151.52 52.604ZM155.875 28.5408C155.875 28.158 155.732 27.8219 155.443 27.5348C155.155 27.2477 154.82 27.1031 154.437 27.1031C154.053 27.1031 153.724 27.2466 153.451 27.5348C153.177 27.8219 153.04 28.158 153.04 28.5408C153.04 28.9247 153.176 29.2534 153.451 29.526C153.725 29.7996 154.054 29.937 154.437 29.937C154.82 29.937 155.156 29.8007 155.443 29.526C155.732 29.2524 155.875 28.9237 155.875 28.5408Z" fill="#CC8DB4"/>
<path d="M174.076 56.2597C174.651 57.0535 175.391 57.6902 176.294 58.1688C177.199 58.6473 178.307 58.8866 179.622 58.8866C180.964 58.8866 182.182 58.5651 183.278 57.9222C184.373 57.2793 185.374 56.4376 186.277 55.3963C187.182 54.3559 187.989 53.1928 188.701 51.9059C189.413 50.619 190.056 49.3321 190.632 48.0462C190.768 47.7445 190.961 47.5198 191.208 47.369C191.454 47.2181 191.728 47.1432 192.03 47.1432C192.495 47.1432 192.872 47.3076 193.159 47.6363C193.446 47.9651 193.591 48.3209 193.591 48.7037C193.591 48.841 193.577 48.9576 193.549 49.0522C193.521 49.149 193.481 49.2509 193.426 49.3602C191.537 53.5216 189.475 56.6561 187.243 58.7639C185.01 60.8716 182.483 61.9525 179.663 62.0076C177.855 62.0076 176.293 61.6591 174.979 60.9611C173.664 60.263 172.582 59.3589 171.733 58.251C170.884 57.143 170.254 55.8894 169.843 54.4943C169.432 53.0981 169.227 51.701 169.227 50.3058C169.227 48.9097 169.398 47.6228 169.74 46.4462C170.083 45.2695 170.575 44.2427 171.219 43.3668C171.863 42.4908 172.63 41.8062 173.52 41.3131C174.409 40.82 175.389 40.5745 176.457 40.5745C177.087 40.5745 177.71 40.7045 178.326 40.9646C178.942 41.2247 179.497 41.594 179.99 42.0726C180.484 42.5522 180.879 43.1348 181.182 43.8183C181.483 44.5028 181.634 45.2831 181.634 46.159C181.634 47.2816 181.442 48.3354 181.058 49.3217C180.674 50.3079 180.148 51.2245 179.476 52.0734C178.805 52.9223 178.004 53.7026 177.073 54.4142C176.144 55.1237 175.144 55.7396 174.076 56.2597ZM172.844 53.5902C173.692 53.2344 174.467 52.7829 175.165 52.2346C175.864 51.6874 176.459 51.0851 176.952 50.4276C177.446 49.7711 177.829 49.0803 178.102 48.3542C178.376 47.629 178.514 46.8966 178.514 46.157C178.514 45.3351 178.308 44.713 177.897 44.2885C177.486 43.864 177.007 43.6518 176.459 43.6518C175.72 43.6518 175.089 43.8568 174.57 44.2677C174.049 44.6786 173.625 45.2123 173.296 45.8698C172.967 46.5273 172.727 47.2597 172.577 48.067C172.426 48.8743 172.351 49.6754 172.351 50.4692C172.351 50.9623 172.399 51.4825 172.494 52.0297C172.59 52.578 172.706 53.0971 172.844 53.5902Z" fill="#CC8DB4"/>
<path d="M214.01 49.4008C213.708 50.0312 213.333 50.7761 212.881 51.6385C212.428 52.501 211.915 53.3978 211.341 54.3278C210.765 55.2589 210.122 56.1828 209.41 57.1004C208.697 58.0179 207.923 58.8388 207.089 59.5639C206.253 60.2901 205.363 60.8778 204.419 61.3294C203.474 61.7819 202.467 62.0066 201.399 62.0066C199.756 62.0066 198.345 61.5 197.167 60.4877C195.99 59.4755 194.99 58.1469 194.169 56.5042C193.347 54.8615 192.682 52.9931 192.176 50.8989C191.669 48.8046 191.278 46.6699 191.005 44.4924C190.731 42.315 190.546 40.201 190.45 38.1474C190.354 36.0937 190.306 34.2742 190.306 32.6855C190.306 30.3853 190.381 28.004 190.532 25.5394C190.682 23.0759 190.922 20.6664 191.251 18.3121C191.579 15.9578 191.997 13.7263 192.504 11.6186C193.011 9.51083 193.614 7.66318 194.312 6.07457C195.011 4.48701 195.812 3.22819 196.716 2.29708C197.62 1.36597 198.646 0.90094 199.797 0.90094C200.701 0.90094 201.515 1.11421 202.242 1.53763C202.967 1.96313 203.577 2.65392 204.07 3.61208C204.564 4.57024 204.947 5.81657 205.22 7.349C205.494 8.88246 205.632 10.7572 205.632 12.9752C205.632 15.7134 205.344 18.54 204.769 21.455C204.193 24.3701 203.412 27.307 202.427 30.2636C201.441 33.2203 200.276 36.1707 198.935 39.1128C197.592 42.0559 196.155 44.9231 194.62 47.7164C195.305 51.1933 196.223 53.9242 197.374 55.9092C198.524 57.8952 199.907 58.8866 201.522 58.8866C202.617 58.8866 203.673 58.4559 204.686 57.5935C205.699 56.731 206.631 55.7115 207.48 54.5338C208.328 53.3572 209.076 52.1598 209.719 50.9405C210.362 49.7222 210.863 48.7433 211.219 48.0046C211.355 47.731 211.547 47.5188 211.793 47.3679C212.04 47.2171 212.314 47.1422 212.616 47.1422C213.081 47.1422 213.458 47.3065 213.745 47.6353C214.032 47.964 214.177 48.3334 214.177 48.7443C214.175 48.9087 214.12 49.1282 214.01 49.4008ZM193.427 32.8936C193.427 34.6456 193.468 36.3299 193.551 37.9445C193.633 39.5601 193.742 41.1071 193.878 42.5844C195.029 40.3675 196.125 38.0059 197.165 35.5007C198.206 32.9956 199.123 30.4644 199.918 27.9041C200.713 25.3449 201.35 22.7981 201.828 20.2659C202.307 17.7337 202.547 15.318 202.547 13.0178C202.547 9.7886 202.286 7.47384 201.766 6.07769C201.245 4.68155 200.547 3.98348 199.671 3.98348C199.095 3.98348 198.541 4.38089 198.006 5.17468C197.472 5.9695 196.972 7.05042 196.507 8.41847C196.04 9.78756 195.617 11.4032 195.233 13.2644C194.848 15.1266 194.527 17.1241 194.267 19.2599C194.006 21.3957 193.8 23.6273 193.65 25.9535C193.502 28.2807 193.427 30.5934 193.427 32.8936Z" fill="#CC8DB4"/>
<path d="M242.975 49.3196C242.866 49.5391 242.64 49.9969 242.297 50.6949C241.955 51.393 241.517 52.193 240.983 53.0971C240.448 54.0001 239.825 54.9448 239.113 55.931C238.4 56.9162 237.606 57.8203 236.73 58.6411C235.853 59.463 234.908 60.1402 233.895 60.6739C232.881 61.2076 231.813 61.475 230.691 61.475C229.103 61.475 227.766 60.9684 226.685 59.9561C225.602 58.9438 224.814 57.6705 224.322 56.137C223.389 57.6975 222.281 58.9366 220.993 59.8531C219.706 60.7707 218.418 61.2284 217.132 61.2284C216.118 61.2284 215.201 61.0433 214.379 60.6739C213.557 60.3046 212.859 59.7844 212.284 59.1134C211.708 58.4424 211.263 57.6559 210.948 56.7518C210.633 55.8478 210.476 54.8626 210.476 53.7952C210.476 51.6604 210.838 49.7784 211.564 48.1492C212.29 46.5211 213.214 45.1582 214.338 44.0628C215.461 42.9683 216.701 42.1464 218.056 41.5992C219.411 41.052 220.72 40.7773 221.98 40.7773C222.828 40.7773 223.609 40.8939 224.322 41.1259C225.034 41.3589 225.643 41.6127 226.15 41.8853C226.656 42.1589 227.046 42.4128 227.321 42.6448C227.594 42.8778 227.745 43.0078 227.772 43.0349C228.074 43.3907 228.226 43.7611 228.226 44.1439C228.226 44.5548 228.074 44.9179 227.772 45.2321C227.472 45.5473 227.116 45.7044 226.705 45.7044C226.266 45.7044 225.897 45.5536 225.596 45.2529C225.541 45.1978 225.418 45.0958 225.226 44.945C225.035 44.7952 224.775 44.637 224.446 44.4726C224.118 44.3083 223.728 44.1647 223.275 44.0409C222.823 43.9171 222.31 43.8557 221.734 43.8557C220.885 43.8557 219.981 44.0482 219.023 44.431C218.064 44.8149 217.188 45.41 216.394 46.2173C215.599 47.0257 214.936 48.0379 214.401 49.2562C213.867 50.4744 213.599 51.9194 213.599 53.5892C213.599 54.1094 213.653 54.6358 213.764 55.1705C213.873 55.7042 214.064 56.1911 214.339 56.628C214.613 57.066 214.982 57.4229 215.448 57.6954C215.913 57.969 216.489 58.1064 217.173 58.1064C217.667 58.1064 218.235 57.942 218.878 57.6132C219.522 57.2855 220.138 56.7789 220.727 56.0943C221.316 55.4108 221.85 54.5484 222.33 53.507C222.809 52.4667 223.145 51.2349 223.336 49.8117C223.39 49.4289 223.568 49.1074 223.87 48.8463C224.171 48.5862 224.528 48.4561 224.938 48.4561C225.321 48.4561 225.656 48.607 225.945 48.9076C226.232 49.2093 226.39 49.5516 226.417 49.9345C226.444 50.4546 226.499 51.187 226.581 52.1317C226.664 53.0763 226.848 54.0147 227.135 54.9448C227.423 55.8759 227.855 56.6832 228.43 57.3677C229.006 58.0523 229.799 58.3945 230.813 58.3945C231.469 58.3945 232.12 58.2166 232.764 57.8608C233.407 57.5061 234.038 57.0338 234.653 56.4439C235.27 55.8561 235.858 55.1851 236.42 54.4319C236.981 53.6797 237.494 52.9192 237.96 52.1535C238.425 51.3868 238.836 50.6481 239.192 49.9355C239.548 49.2239 239.85 48.608 240.097 48.0878C240.233 47.7872 240.431 47.5541 240.692 47.3898C240.953 47.2254 241.234 47.1432 241.534 47.1432C242 47.1432 242.377 47.3149 242.665 47.6571C242.952 47.9994 243.096 48.3625 243.096 48.7453C243.098 48.9368 243.057 49.1282 242.975 49.3196Z" fill="#CC8DB4"/>
<path d="M351.192 0C352.124 0 353.129 0.102994 354.212 0.307942C355.293 0.51289 356.299 0.856203 357.231 1.33476C358.163 1.81436 358.929 2.45833 359.531 3.2646C360.134 4.07191 360.436 5.07896 360.436 6.28264C360.436 7.76097 360.004 9.10197 359.141 10.3067C358.279 11.5114 357.067 12.5445 355.505 13.4069C353.944 14.2694 352.075 14.9404 349.897 15.4189C347.72 15.8985 345.316 16.1378 342.686 16.1378C339.728 16.1378 336.523 15.9329 333.073 15.5219C332.443 17.4934 331.97 19.6979 331.655 22.1333C331.34 24.5698 331.169 27.2799 331.142 30.2636C332.183 30.2366 333.245 30.2168 334.327 30.2022C335.409 30.1887 336.525 30.1814 337.676 30.1814C339.21 30.1814 340.757 30.2022 342.318 30.2439C343.879 30.2844 345.455 30.3323 347.043 30.3874C347.509 30.4155 347.871 30.5861 348.132 30.9014C348.392 31.2166 348.522 31.5786 348.522 31.9896C348.522 32.4275 348.37 32.7844 348.07 33.0569C347.768 33.3306 347.412 33.4679 347.002 33.4679C345.44 33.4679 343.886 33.4408 342.34 33.3857C340.792 33.3306 339.264 33.3035 337.759 33.3035C336.609 33.3035 335.485 33.3108 334.39 33.3243C333.295 33.3378 332.212 33.3586 331.144 33.3857C331.144 33.7696 331.151 34.1389 331.165 34.4937C331.18 34.8505 331.187 35.2198 331.187 35.6027C331.187 39.8733 330.543 43.6716 329.256 46.9986C327.969 50.3246 326.086 53.1242 323.607 55.3963C321.127 57.6694 318.081 59.3933 314.466 60.5709C310.85 61.7476 306.7 62.3364 302.016 62.3364C298.566 62.3364 295.505 62.0285 292.835 61.4126C290.164 60.7967 287.823 59.9821 285.81 58.9688C283.796 57.9566 282.071 56.8132 280.632 55.5398C279.194 54.2664 277.996 52.9806 277.037 51.6801C276.079 50.3797 275.312 49.1209 274.737 47.9027C274.162 46.6844 273.737 45.6378 273.463 44.7608C273.435 44.6786 273.414 44.6037 273.401 44.5351C273.386 44.4674 273.38 44.3915 273.38 44.3093C273.38 43.8984 273.53 43.5363 273.832 43.2211C274.133 42.9069 274.516 42.7488 274.982 42.7488C275.31 42.7488 275.605 42.8455 275.865 43.0359C276.126 43.2284 276.311 43.4874 276.42 43.8162C276.666 44.5829 277.036 45.5005 277.529 46.5679C278.022 47.6353 278.7 48.7381 279.562 49.8741C280.425 51.0102 281.493 52.14 282.767 53.2615C284.041 54.385 285.588 55.3838 287.409 56.2597C289.231 57.1357 291.34 57.8473 293.737 58.3945C296.133 58.9428 298.892 59.2164 302.014 59.2164C310.615 59.2164 317.114 57.2189 321.509 53.2209C325.906 49.2239 328.103 43.3241 328.103 35.5215C328.103 35.1938 328.096 34.8578 328.082 34.5155C328.068 34.1732 328.061 33.8382 328.061 33.5095C325.295 33.6187 322.748 33.7498 320.42 33.8996C318.091 34.0505 316.057 34.2013 314.318 34.3522C312.579 34.503 311.175 34.6258 310.107 34.7215C309.039 34.8182 308.381 34.8651 308.135 34.8651C307.668 34.8651 307.257 34.735 306.901 34.4749C306.545 34.2149 306.367 33.8247 306.367 33.3045C306.367 32.9217 306.504 32.5857 306.778 32.2985C307.052 32.0114 307.381 31.8408 307.764 31.7846C307.791 31.7846 308.319 31.7305 309.346 31.6202C310.373 31.511 311.791 31.3809 313.599 31.2301C315.406 31.0793 317.543 30.9284 320.007 30.7775C322.473 30.6277 325.156 30.4967 328.06 30.3874C328.115 24.3378 328.744 19.2453 329.95 15.111C326.964 14.6741 323.923 14.1456 320.829 13.5297C317.732 12.9138 314.651 12.2636 311.584 11.579C308.517 10.8945 305.496 10.2172 302.525 9.5462C299.554 8.87518 296.697 8.26762 293.959 7.71936C291.22 7.17213 288.646 6.73415 286.235 6.4054C283.825 6.07665 281.634 5.91228 279.662 5.91228C276.896 5.91228 274.321 6.19317 271.938 6.75392C269.556 7.3157 267.494 8.12925 265.756 9.19769C264.015 10.2651 262.647 11.5728 261.647 13.1198C260.647 14.6668 260.148 16.426 260.148 18.3964C260.148 19.6833 260.387 20.8402 260.867 21.866C261.346 22.8928 261.886 23.7698 262.49 24.4939C263.092 25.22 263.653 25.7808 264.175 26.1771C264.694 26.5746 264.981 26.7868 265.036 26.8138C265.283 26.9512 265.461 27.1426 265.571 27.3891C265.68 27.6357 265.736 27.8823 265.736 28.1278C265.736 28.5939 265.578 28.9705 265.263 29.2566C264.948 29.5437 264.598 29.6883 264.215 29.6883C263.913 29.6883 263.626 29.5926 263.352 29.4012C262.696 28.9642 261.996 28.3889 261.257 27.6763C260.517 26.9647 259.84 26.1501 259.223 25.2325C258.607 24.316 258.093 23.2819 257.683 22.1323C257.272 20.9827 257.067 19.7364 257.067 18.3954C257.067 15.9318 257.649 13.7419 258.813 11.8256C259.977 9.90928 261.572 8.2801 263.6 6.9391C265.627 5.59809 268.016 4.57752 270.769 3.87944C273.522 3.18137 276.501 2.83286 279.705 2.83286C281.595 2.83286 283.746 3.00451 286.155 3.34575C288.565 3.68906 291.162 4.13329 293.941 4.68051C296.72 5.22773 299.637 5.84466 302.691 6.52816C305.745 7.21167 308.861 7.9035 312.038 8.60157C315.214 9.29964 318.406 9.96442 321.61 10.5938C324.814 11.2232 327.951 11.758 331.018 12.1949C331.785 10.0601 332.888 8.21872 334.326 6.67173C335.764 5.12578 337.4 3.85864 339.236 2.87343C341.071 1.88823 343.022 1.16206 345.091 0.697031C347.159 0.233037 349.193 0 351.192 0ZM357.313 6.20045C357.313 5.54296 357.101 5.01654 356.676 4.61913C356.252 4.22276 355.725 3.90753 355.094 3.6745C354.464 3.4425 353.8 3.28437 353.102 3.20218C352.404 3.12103 351.767 3.07942 351.192 3.07942C349.877 3.07942 348.419 3.21675 346.816 3.49036C345.215 3.76501 343.626 4.25709 342.051 4.96869C340.476 5.68132 338.997 6.65196 337.613 7.88373C336.23 9.1155 335.101 10.6906 334.224 12.6069C337.265 12.9356 340.072 13.1 342.647 13.1C344.754 13.1 346.706 12.9294 348.501 12.5861C350.295 12.2438 351.843 11.7725 353.144 11.1691C354.445 10.5678 355.465 9.84166 356.204 8.99274C356.944 8.14486 357.313 7.21375 357.313 6.20045Z" fill="#CC8DB4"/>
<path d="M348.439 56.2597C349.015 57.0535 349.755 57.6902 350.658 58.1688C351.562 58.6473 352.672 58.8866 353.986 58.8866C355.327 58.8866 356.546 58.5651 357.642 57.9222C358.738 57.2793 359.738 56.4376 360.642 55.3963C361.545 54.3559 362.354 53.1928 363.066 51.9059C363.778 50.619 364.422 49.3321 364.997 48.0462C365.133 47.7445 365.325 47.5198 365.571 47.369C365.818 47.2181 366.092 47.1432 366.394 47.1432C366.859 47.1432 367.236 47.3076 367.523 47.6363C367.81 47.9651 367.955 48.3209 367.955 48.7037C367.955 48.841 367.94 48.9576 367.913 49.0522C367.886 49.149 367.846 49.2509 367.79 49.3602C365.901 53.5216 363.839 56.6561 361.608 58.7639C359.374 60.8716 356.849 61.9525 354.027 62.0076C352.22 62.0076 350.659 61.6591 349.345 60.9611C348.029 60.263 346.946 59.3589 346.098 58.251C345.25 57.143 344.619 55.8894 344.209 54.4943C343.798 53.0981 343.593 51.701 343.593 50.3058C343.593 48.9097 343.764 47.6228 344.106 46.4462C344.448 45.2695 344.942 44.2427 345.585 43.3668C346.228 42.4908 346.995 41.8062 347.886 41.3131C348.775 40.82 349.756 40.5745 350.824 40.5745C351.452 40.5745 352.077 40.7045 352.693 40.9646C353.309 41.2247 353.864 41.594 354.357 42.0726C354.851 42.5522 355.246 43.1348 355.549 43.8183C355.85 44.5028 356.002 45.2831 356.002 46.159C356.002 47.2816 355.809 48.3354 355.426 49.3217C355.042 50.3069 354.515 51.2245 353.844 52.0734C353.172 52.9223 352.371 53.7026 351.44 54.4142C350.507 55.1237 349.507 55.7396 348.439 56.2597ZM347.207 53.5902C348.055 53.2344 348.829 52.7829 349.527 52.2346C350.226 51.6874 350.822 51.0851 351.315 50.4276C351.808 49.7711 352.191 49.0803 352.465 48.3542C352.739 47.629 352.876 46.8966 352.876 46.157C352.876 45.3351 352.671 44.713 352.259 44.2885C351.848 43.864 351.369 43.6518 350.822 43.6518C350.082 43.6518 349.452 43.8568 348.931 44.2677C348.411 44.6786 347.987 45.2123 347.657 45.8698C347.33 46.5273 347.089 47.2597 346.939 48.067C346.788 48.8743 346.713 49.6754 346.713 50.4692C346.713 50.9623 346.76 51.4825 346.857 52.0297C346.953 52.578 347.07 53.0971 347.207 53.5902Z" fill="#CC8DB4"/>
<path d="M369.31 43.8984C369.201 44.637 369.064 45.3288 368.899 45.9718C368.734 46.6157 368.576 47.1765 368.426 47.6561C368.276 48.1357 368.144 48.5248 368.036 48.8265C367.927 49.1282 367.857 49.2926 367.831 49.3196C367.556 49.949 367.076 50.2642 366.392 50.2642C366.009 50.2642 365.653 50.1207 365.325 49.8325C364.997 49.5454 364.831 49.1823 364.831 48.7443C364.831 48.5799 364.858 48.4572 364.913 48.375C364.969 48.2928 365.051 48.1284 365.16 47.8818C365.268 47.6353 365.406 47.2254 365.571 46.6501C365.737 46.0748 365.941 45.1863 366.187 43.9806C365.722 43.9806 365.242 43.967 364.749 43.94C364.256 43.9129 363.798 43.8162 363.373 43.6528C362.949 43.4885 362.6 43.2284 362.326 42.8726C362.052 42.5168 361.914 42.0247 361.914 41.3943C361.914 40.9292 362.045 40.2998 362.304 39.505C362.565 38.7112 362.914 37.931 363.352 37.1642C363.79 36.3985 364.284 35.7337 364.831 35.172C365.379 34.6112 365.927 34.3303 366.475 34.3303C367.104 34.3303 367.619 34.5634 368.015 35.0284C368.412 35.4945 368.72 36.0625 368.939 36.7325C369.159 37.4035 369.315 38.1078 369.412 38.8475C369.508 39.5861 369.557 40.2301 369.557 40.7773C370.021 40.7773 370.481 40.7711 370.933 40.7565C371.384 40.743 371.816 40.7357 372.226 40.7357C373.788 40.7357 374.979 41.079 375.801 41.7625C376.623 42.4471 377.034 43.5696 377.034 45.1301C377.034 45.7595 376.993 46.417 376.911 47.1016C376.829 47.7861 376.732 48.4915 376.624 49.2166C376.515 49.9417 376.419 50.6606 376.337 51.3722C376.254 52.0848 376.214 52.7819 376.214 53.4664C376.214 54.4516 376.35 55.2662 376.625 55.9091C376.899 56.5531 377.241 57.066 377.651 57.4489C378.062 57.8327 378.5 58.0991 378.967 58.2499C379.432 58.4008 379.856 58.4757 380.241 58.4757C381.418 58.4757 382.527 58.0928 383.568 57.3261C384.609 56.5604 385.567 55.6355 386.444 54.5546C387.321 53.4727 388.109 52.3304 388.807 51.1256C389.505 49.9209 390.087 48.8671 390.554 47.963C390.691 47.7164 390.882 47.526 391.129 47.3877C391.376 47.2514 391.635 47.1827 391.91 47.1827C392.403 47.1827 392.786 47.3409 393.06 47.6551C393.334 47.9703 393.471 48.3188 393.471 48.7016C393.471 48.9752 393.416 49.2218 393.307 49.4403C392.677 50.5639 391.943 51.8289 391.109 53.2386C390.274 54.6482 389.322 55.9695 388.254 57.2013C387.186 58.433 385.987 59.4744 384.659 60.3223C383.331 61.1702 381.872 61.5957 380.284 61.5957C379.298 61.5957 378.366 61.4105 377.49 61.0412C376.613 60.6718 375.853 60.1381 375.209 59.4401C374.566 58.742 374.053 57.8796 373.67 56.8527C373.286 55.8259 373.094 54.6701 373.094 53.3832C373.094 52.0151 373.231 50.6523 373.506 49.2967C373.779 47.9422 373.917 46.648 373.917 45.4162C373.917 44.8961 373.8 44.5059 373.568 44.2458C373.334 43.9858 372.821 43.8557 372.028 43.8557C371.644 43.8557 371.226 43.8557 370.774 43.8557C370.323 43.8557 369.83 43.8713 369.31 43.8984ZM366.557 40.8595C366.557 40.6681 366.55 40.4143 366.536 40.1001C366.522 39.7859 366.495 39.4779 366.454 39.1762C366.412 38.8756 366.357 38.6155 366.289 38.396C366.222 38.1775 366.146 38.0683 366.064 38.0683C365.981 38.0683 365.878 38.1713 365.755 38.3762C365.632 38.5812 365.502 38.8277 365.365 39.1149C365.228 39.402 365.104 39.7099 364.996 40.0387C364.886 40.3674 364.803 40.6411 364.749 40.8606H366.557V40.8595Z" fill="#CC8DB4"/>
<path d="M394.824 43.8984C394.715 44.637 394.578 45.3288 394.413 45.9718C394.249 46.6157 394.09 47.1765 393.94 47.6561C393.791 48.1357 393.658 48.5248 393.55 48.8265C393.441 49.1282 393.371 49.2926 393.345 49.3196C393.07 49.949 392.59 50.2642 391.907 50.2642C391.524 50.2642 391.168 50.1207 390.839 49.8325C390.511 49.5454 390.345 49.1823 390.345 48.7443C390.345 48.5799 390.372 48.4572 390.428 48.375C390.483 48.2928 390.565 48.1284 390.674 47.8818C390.783 47.6353 390.92 47.2254 391.085 46.6501C391.251 46.0748 391.455 45.1863 391.702 43.9806C391.236 43.9806 390.756 43.967 390.263 43.94C389.77 43.9129 389.312 43.8162 388.887 43.6528C388.464 43.4885 388.114 43.2284 387.84 42.8726C387.566 42.5168 387.428 42.0247 387.428 41.3943C387.428 40.9292 387.559 40.2998 387.818 39.505C388.079 38.7112 388.428 37.931 388.866 37.1642C389.305 36.3985 389.798 35.7337 390.345 35.172C390.893 34.6112 391.441 34.3303 391.989 34.3303C392.619 34.3303 393.133 34.5634 393.529 35.0284C393.926 35.4945 394.234 36.0625 394.454 36.7325C394.673 37.4035 394.829 38.1078 394.926 38.8475C395.022 39.5861 395.071 40.2301 395.071 40.7773C395.535 40.7773 395.995 40.7711 396.447 40.7565C396.898 40.743 397.33 40.7357 397.741 40.7357C399.302 40.7357 400.494 41.079 401.315 41.7625C402.137 42.4471 402.548 43.5696 402.548 45.1301C402.548 45.7595 402.508 46.417 402.425 47.1016C402.343 47.7861 402.246 48.4915 402.138 49.2166C402.029 49.9417 401.933 50.6606 401.851 51.3722C401.769 52.0848 401.728 52.7819 401.728 53.4664C401.728 54.4516 401.864 55.2662 402.139 55.9091C402.413 56.5531 402.755 57.066 403.165 57.4489C403.577 57.8327 404.014 58.0991 404.481 58.2499C404.946 58.4008 405.37 58.4757 405.755 58.4757C406.932 58.4757 408.041 58.0928 409.083 57.3261C410.123 56.5604 411.081 55.6355 411.958 54.5546C412.835 53.4727 413.623 52.3304 414.321 51.1256C415.02 49.9209 415.601 48.8671 416.068 47.963C416.205 47.7164 416.397 47.526 416.643 47.3877C416.89 47.2514 417.149 47.1827 417.424 47.1827C417.917 47.1827 418.3 47.3409 418.574 47.6551C418.848 47.9703 418.985 48.3188 418.985 48.7016C418.985 48.9752 418.93 49.2218 418.821 49.4403C418.191 50.5639 417.457 51.8289 416.623 53.2386C415.788 54.6482 414.836 55.9695 413.768 57.2013C412.701 58.433 411.501 59.4744 410.173 60.3223C408.845 61.1702 407.386 61.5957 405.798 61.5957C404.812 61.5957 403.88 61.4105 403.004 61.0412C402.127 60.6718 401.367 60.1381 400.724 59.4401C400.08 58.742 399.567 57.8796 399.184 56.8527C398.8 55.8259 398.609 54.6701 398.609 53.3832C398.609 52.0151 398.745 50.6523 399.02 49.2967C399.293 47.9422 399.431 46.648 399.431 45.4162C399.431 44.8961 399.314 44.5059 399.082 44.2458C398.848 43.9858 398.335 43.8557 397.542 43.8557C397.158 43.8557 396.74 43.8557 396.289 43.8557C395.837 43.8557 395.345 43.8713 394.824 43.8984ZM392.071 40.8595C392.071 40.6681 392.064 40.4143 392.05 40.1001C392.036 39.7859 392.009 39.4779 391.968 39.1762C391.926 38.8756 391.871 38.6155 391.804 38.396C391.736 38.1775 391.66 38.0683 391.578 38.0683C391.495 38.0683 391.392 38.1713 391.27 38.3762C391.146 38.5812 391.016 38.8277 390.879 39.1149C390.742 39.402 390.618 39.7099 390.51 40.0387C390.401 40.3674 390.317 40.6411 390.263 40.8606H392.071V40.8595Z" fill="#CC8DB4"/>
<path d="M447.782 49.3196C447.673 49.5391 447.446 49.9969 447.104 50.6949C446.761 51.393 446.324 52.193 445.789 53.0971C445.255 54.0001 444.631 54.9448 443.92 55.931C443.207 56.9162 442.413 57.8203 441.537 58.6411C440.66 59.463 439.715 60.1402 438.702 60.6739C437.688 61.2076 436.62 61.475 435.497 61.475C433.909 61.475 432.572 60.9684 431.491 59.9561C430.408 58.9438 429.622 57.6705 429.128 56.137C428.197 57.6975 427.087 58.9366 425.801 59.8531C424.513 60.7707 423.226 61.2284 421.938 61.2284C420.924 61.2284 420.008 61.0433 419.185 60.6739C418.364 60.3046 417.665 59.7844 417.09 59.1134C416.514 58.4424 416.07 57.6559 415.754 56.7518C415.439 55.8478 415.282 54.8626 415.282 53.7952C415.282 51.6604 415.645 49.7784 416.372 48.1492C417.096 46.5211 418.021 45.1582 419.144 44.0628C420.266 42.9683 421.507 42.1464 422.862 41.5992C424.217 41.052 425.526 40.7773 426.786 40.7773C427.635 40.7773 428.415 40.8939 429.128 41.1259C429.84 41.3589 430.45 41.6127 430.957 41.8853C431.463 42.1589 431.853 42.4128 432.128 42.6448C432.402 42.8778 432.551 43.0078 432.58 43.0349C432.88 43.3907 433.032 43.7611 433.032 44.1439C433.032 44.5548 432.88 44.9179 432.58 45.2321C432.278 45.5473 431.922 45.7044 431.512 45.7044C431.073 45.7044 430.704 45.5536 430.403 45.2529C430.348 45.1978 430.224 45.0958 430.034 44.945C429.841 44.7952 429.582 44.637 429.253 44.4726C428.925 44.3083 428.535 44.1647 428.082 44.0409C427.63 43.9171 427.116 43.8557 426.542 43.8557C425.693 43.8557 424.789 44.0482 423.831 44.431C422.872 44.8149 421.995 45.41 421.202 46.2173C420.407 47.0257 419.744 48.0379 419.21 49.2562C418.675 50.4744 418.407 51.9194 418.407 53.5892C418.407 54.1094 418.463 54.6358 418.572 55.1705C418.68 55.7042 418.873 56.1911 419.148 56.628C419.421 57.066 419.791 57.4229 420.256 57.6954C420.721 57.969 421.297 58.1064 421.982 58.1064C422.475 58.1064 423.043 57.942 423.687 57.6132C424.33 57.2855 424.946 56.7789 425.535 56.0943C426.123 55.4108 426.658 54.5484 427.138 53.507C427.617 52.4667 427.952 51.2349 428.145 49.8117C428.2 49.4289 428.377 49.1074 428.678 48.8463C428.979 48.5862 429.336 48.4561 429.746 48.4561C430.129 48.4561 430.466 48.607 430.754 48.9076C431.04 49.2093 431.198 49.5516 431.225 49.9345C431.252 50.4546 431.308 51.187 431.39 52.1317C431.472 53.0763 431.657 54.0147 431.945 54.9448C432.232 55.8759 432.663 56.6832 433.238 57.3677C433.814 58.0523 434.607 58.3945 435.621 58.3945C436.279 58.3945 436.929 58.2166 437.572 57.8608C438.216 57.5061 438.846 57.0338 439.463 56.4439C440.079 55.8561 440.667 55.1851 441.229 54.4319C441.79 53.6797 442.303 52.9192 442.768 52.1535C443.234 51.3878 443.645 50.6481 444.002 49.9355C444.358 49.2239 444.66 48.608 444.905 48.0878C445.043 47.7872 445.24 47.5541 445.501 47.3898C445.761 47.2254 446.042 47.1432 446.344 47.1432C446.809 47.1432 447.186 47.3149 447.473 47.6571C447.76 47.9994 447.905 48.3625 447.905 48.7453C447.906 48.9368 447.864 49.1282 447.782 49.3196Z" fill="#CC8DB4"/>
<path d="M449.26 43.8984C449.151 44.637 449.014 45.3288 448.849 45.9718C448.684 46.6157 448.526 47.1765 448.376 47.6561C448.226 48.1357 448.094 48.5248 447.986 48.8265C447.877 49.1282 447.807 49.2926 447.781 49.3196C447.506 49.949 447.026 50.2642 446.343 50.2642C445.96 50.2642 445.604 50.1207 445.275 49.8325C444.947 49.5454 444.781 49.1823 444.781 48.7443C444.781 48.5799 444.808 48.4572 444.864 48.375C444.919 48.2928 445.001 48.1284 445.11 47.8818C445.218 47.6353 445.356 47.2254 445.521 46.6501C445.687 46.0748 445.891 45.1863 446.138 43.9806C445.672 43.9806 445.192 43.967 444.699 43.94C444.206 43.9129 443.748 43.8162 443.323 43.6528C442.899 43.4885 442.55 43.2284 442.276 42.8726C442.002 42.5168 441.864 42.0247 441.864 41.3943C441.864 40.9292 441.995 40.2998 442.254 39.505C442.515 38.7112 442.864 37.931 443.302 37.1642C443.74 36.3985 444.234 35.7337 444.781 35.172C445.329 34.6112 445.877 34.3303 446.425 34.3303C447.054 34.3303 447.569 34.5634 447.965 35.0284C448.362 35.4945 448.67 36.0625 448.89 36.7325C449.109 37.4035 449.265 38.1078 449.362 38.8475C449.458 39.5861 449.507 40.2301 449.507 40.7773C449.971 40.7773 450.431 40.7711 450.883 40.7565C451.334 40.743 451.766 40.7357 452.176 40.7357C453.738 40.7357 454.93 41.079 455.751 41.7625C456.573 42.4471 456.984 43.5696 456.984 45.1301C456.984 45.7595 456.944 46.417 456.861 47.1016C456.779 47.7861 456.682 48.4915 456.574 49.2166C456.465 49.9417 456.369 50.6606 456.287 51.3722C456.205 52.0848 456.164 52.7819 456.164 53.4664C456.164 54.4516 456.3 55.2662 456.575 55.9091C456.849 56.5531 457.191 57.066 457.601 57.4489C458.012 57.8327 458.45 58.0991 458.917 58.2499C459.382 58.4008 459.806 58.4757 460.191 58.4757C461.368 58.4757 462.477 58.0928 463.519 57.3261C464.559 56.5604 465.517 55.6355 466.394 54.5546C467.271 53.4727 468.059 52.3304 468.757 51.1256C469.455 49.9209 470.037 48.8671 470.504 47.963C470.641 47.7164 470.833 47.526 471.079 47.3877C471.326 47.2514 471.585 47.1827 471.86 47.1827C472.353 47.1827 472.736 47.3409 473.01 47.6551C473.284 47.9703 473.421 48.3188 473.421 48.7016C473.421 48.9752 473.366 49.2218 473.257 49.4403C472.627 50.5639 471.893 51.8289 471.059 53.2386C470.224 54.6482 469.272 55.9695 468.204 57.2013C467.136 58.433 465.937 59.4744 464.609 60.3223C463.281 61.1702 461.822 61.5957 460.234 61.5957C459.248 61.5957 458.316 61.4105 457.44 61.0412C456.563 60.6718 455.803 60.1381 455.16 59.4401C454.516 58.742 454.003 57.8796 453.62 56.8527C453.236 55.8259 453.045 54.6701 453.045 53.3832C453.045 52.0151 453.181 50.6523 453.456 49.2967C453.729 47.9422 453.867 46.648 453.867 45.4162C453.867 44.8961 453.75 44.5059 453.518 44.2458C453.284 43.9858 452.771 43.8557 451.978 43.8557C451.594 43.8557 451.176 43.8557 450.725 43.8557C450.273 43.8557 449.78 43.8713 449.26 43.8984ZM446.508 40.8595C446.508 40.6681 446.501 40.4143 446.487 40.1001C446.473 39.7859 446.446 39.4779 446.405 39.1762C446.363 38.8756 446.308 38.6155 446.241 38.396C446.173 38.1775 446.097 38.0683 446.015 38.0683C445.932 38.0683 445.829 38.1713 445.707 38.3762C445.583 38.5812 445.453 38.8277 445.316 39.1149C445.179 39.402 445.055 39.7099 444.947 40.0387C444.838 40.3674 444.754 40.6411 444.7 40.8606H446.508V40.8595Z" fill="#CC8DB4"/>
<path d="M489.401 56.2597C488.716 56.2597 488.114 56.2046 487.593 56.0954C487.182 56.9172 486.69 57.6767 486.114 58.3748C485.539 59.0728 484.874 59.6825 484.122 60.2016C483.367 60.7218 482.526 61.1327 481.595 61.4334C480.662 61.7351 479.649 61.8859 478.555 61.8859C477.267 61.8859 476.089 61.6602 475.021 61.2087C473.953 60.7572 473.02 60.1267 472.226 59.3194C471.431 58.5121 470.816 57.5404 470.378 56.4044C469.939 55.2683 469.72 54.0157 469.72 52.6466C469.72 50.8947 470.035 49.3685 470.665 48.0681C471.295 46.7676 472.021 45.6857 472.842 44.8243C473.665 43.9618 474.486 43.3189 475.308 42.8944C476.129 42.47 476.746 42.2577 477.156 42.2577C477.621 42.2577 477.971 42.3815 478.204 42.6271C478.437 42.8726 478.553 43.2024 478.553 43.6123C478.553 44.0784 478.409 44.4269 478.122 44.6589C477.834 44.8919 477.471 45.1177 477.033 45.3361C476.595 45.5556 476.129 45.8636 475.636 46.26C475.143 46.6574 474.684 47.1567 474.26 47.7591C473.835 48.3614 473.486 49.073 473.212 49.8939C472.937 50.7157 472.801 51.6323 472.801 52.6456C472.801 53.5486 472.937 54.3902 473.212 55.1705C473.486 55.9508 473.883 56.6228 474.404 57.1836C474.924 57.7454 475.54 58.1823 476.252 58.4975C476.965 58.8127 477.758 58.9698 478.636 58.9698C480.196 58.9698 481.491 58.6068 482.517 57.8816C483.544 57.1565 484.331 56.2327 484.88 55.1091C483.263 54.2612 481.935 53.0555 480.895 51.495C479.853 49.9345 479.334 48.1825 479.334 46.2391C479.334 44.6786 479.71 43.4052 480.463 42.42C481.217 41.4338 482.21 40.9417 483.442 40.9417C484.181 40.9417 484.88 41.1196 485.537 41.4754C486.195 41.8312 486.776 42.393 487.284 43.1597C487.79 43.9265 488.194 44.9117 488.496 46.1164C488.797 47.3211 488.948 48.7589 488.948 50.4286C488.948 51.3056 488.839 52.2222 488.62 53.1803C488.784 53.2074 488.948 53.2209 489.114 53.2209C489.277 53.2209 489.455 53.2209 489.648 53.2209C490.579 53.2209 491.414 53.1127 492.154 52.8932C492.893 52.6747 493.563 52.346 494.167 51.908C494.771 51.47 495.311 50.9093 495.791 50.2237C496.27 49.5402 496.729 48.7453 497.167 47.8413C497.249 47.6769 497.427 47.5198 497.701 47.369C497.974 47.2181 498.248 47.1432 498.523 47.1432C498.879 47.1432 499.214 47.2868 499.529 47.5749C499.845 47.8631 500.002 48.2387 500.002 48.7037C500.002 48.9232 499.947 49.1625 499.838 49.4226C499.728 49.6827 499.618 49.922 499.51 50.1404C499.043 50.9623 498.503 51.7488 497.886 52.502C497.27 53.2552 496.544 53.9117 495.709 54.4735C494.873 55.0353 493.935 55.4795 492.894 55.8082C491.851 56.1359 490.688 56.2868 489.401 56.2597ZM482.375 45.9104C482.375 46.4306 482.443 46.9778 482.58 47.5531C482.717 48.1274 482.929 48.6964 483.216 49.2572C483.504 49.819 483.86 50.3527 484.284 50.8593C484.709 51.366 485.21 51.7977 485.784 52.1535C485.865 51.5782 485.907 51.0174 485.907 50.4692C485.907 49.7305 485.852 48.9773 485.743 48.2106C485.633 47.4449 485.475 46.7395 485.27 46.0956C485.065 45.4526 484.812 44.9325 484.511 44.5351C484.209 44.1387 483.853 43.94 483.443 43.94C483.279 43.94 483.059 44.0627 482.786 44.3093C482.512 44.5559 482.375 45.0896 482.375 45.9104Z" fill="#CC8DB4"/>
<path d="M107.074 99.7066V82.6148H109.468L115.625 94.5299L121.733 82.6148H124.15V99.7066H122.099V86.2779L116.383 97.2649H114.843L109.127 86.3018V99.7066H107.074Z" fill="black"/>
<path d="M135.24 99.7066L141.542 82.6148H143.716L149.995 99.7066H147.82L146.257 95.3112H138.977L137.39 99.7066H135.24ZM139.588 93.6518H145.646L142.617 85.2032L139.588 93.6518Z" fill="black"/>
<path d="M161.085 99.7066V82.6148H163.136V90.355L170.27 82.6148H172.86L166.508 89.427L172.958 99.7066H170.466L165.043 91.0145L163.137 93.0411V99.7066H161.085Z" fill="black"/>
<path d="M183.851 99.7066V82.6148H194.429V84.2991H185.903V90.2572H193.696V91.9176H185.903V98.0213H194.429V99.7066H183.851Z" fill="black"/>
<path d="M212.359 100C211.186 100 210.124 99.768 209.17 99.304C208.217 98.84 207.456 98.1201 206.887 97.1432C206.316 96.1663 206.032 94.921 206.032 93.4073V82.6148H208.084V93.4313C208.084 95.0917 208.482 96.2964 209.281 97.0454C210.079 97.7945 211.121 98.169 212.407 98.169C213.694 98.169 214.728 97.7945 215.509 97.0454C216.291 96.2964 216.681 95.0917 216.681 93.4313V82.6148H218.734V93.4073C218.734 94.921 218.449 96.1663 217.879 97.1432C217.309 98.1201 216.544 98.84 215.582 99.304C214.62 99.768 213.547 100 212.359 100Z" fill="black"/>
<path d="M230.753 99.7066V82.6148H236.372C237.706 82.6148 238.806 82.8343 239.669 83.2733C240.532 83.7134 241.171 84.3074 241.587 85.0555C242.002 85.8045 242.21 86.6513 242.21 87.5949C242.21 88.5229 242.007 89.3614 241.6 90.1094C241.192 90.8585 240.557 91.4567 239.694 91.904C238.831 92.3524 237.723 92.5761 236.373 92.5761H232.806V99.7056H230.753V99.7066ZM232.805 90.8429H236.323C237.689 90.8429 238.664 90.5537 239.241 89.9763C239.82 89.3989 240.109 88.6051 240.109 87.5949C240.109 86.5691 239.82 85.7681 239.241 85.1897C238.664 84.6123 237.691 84.3231 236.323 84.3231H232.805V90.8429Z" fill="black"/>
<path d="M267.396 99.7066L273.699 82.6148H275.873L282.151 99.7066H279.977L278.413 95.3112H271.134L269.546 99.7066H267.396ZM271.745 93.6518H277.802L274.774 85.2032L271.745 93.6518Z" fill="black"/>
<path d="M293.24 99.7066V82.6148H298.762C300.096 82.6148 301.188 82.8343 302.035 83.2733C302.881 83.7134 303.509 84.3158 303.917 85.0804C304.324 85.8461 304.528 86.6919 304.528 87.6199C304.528 88.6946 304.239 89.6631 303.661 90.5256C303.082 91.3891 302.183 91.9997 300.961 92.3566L304.699 99.7056H302.281L298.812 92.6489H298.665H295.294V99.7056H293.24V99.7066ZM295.293 91.0385H298.615C299.935 91.0385 300.895 90.7212 301.498 90.0866C302.1 89.4519 302.402 88.6374 302.402 87.6449C302.402 86.6357 302.104 85.8347 301.511 85.2396C300.916 84.6456 299.942 84.348 298.591 84.348H295.293V91.0385Z" fill="black"/>
<path d="M320.282 99.7066V84.2991H315.177V82.6148H327.44V84.2991H322.335V99.7066H320.282Z" fill="black"/>
<path d="M338.505 99.7066V82.6148H340.558V99.7066H338.505Z" fill="black"/>
<path d="M358.171 100C356.917 100 355.826 99.7722 354.896 99.3165C353.968 98.8608 353.252 98.2262 352.747 97.4116C352.243 96.5981 351.989 95.6534 351.989 94.5788H354.139C354.139 95.2467 354.293 95.8605 354.603 96.4222C354.912 96.984 355.364 97.4314 355.959 97.7653C356.554 98.0993 357.29 98.2657 358.17 98.2657C359.325 98.2657 360.222 97.989 360.856 97.4355C361.491 96.8821 361.81 96.1903 361.81 95.3601C361.81 94.6765 361.663 94.1272 361.369 93.7121C361.077 93.2971 360.681 92.9589 360.185 92.6988C359.687 92.4388 359.118 92.2109 358.474 92.0153C357.831 91.8198 357.158 91.6003 356.459 91.3558C355.139 90.9001 354.162 90.3352 353.528 89.659C352.893 88.9838 352.574 88.1005 352.574 87.0102C352.558 86.0989 352.77 85.2885 353.209 84.581C353.649 83.8726 354.272 83.3201 355.079 82.9207C355.884 82.5222 356.841 82.3224 357.949 82.3224C359.04 82.3224 359.988 82.5264 360.794 82.9331C361.599 83.3399 362.227 83.9017 362.676 84.6175C363.123 85.3342 363.355 86.1478 363.372 87.0591H361.223C361.223 86.5868 361.101 86.1187 360.855 85.6547C360.612 85.1907 360.241 84.812 359.745 84.5197C359.248 84.2273 358.625 84.0806 357.875 84.0806C356.947 84.064 356.186 84.3001 355.592 84.7891C354.997 85.277 354.701 85.9533 354.701 86.8157C354.701 87.5481 354.908 88.1099 355.324 88.5011C355.74 88.8922 356.321 89.2137 357.071 89.4655C357.82 89.7183 358.684 90.0075 359.66 90.3321C360.474 90.6244 361.207 90.9667 361.859 91.3568C362.509 91.7469 363.018 92.2525 363.386 92.8705C363.752 93.4895 363.935 94.2791 363.935 95.2394C363.935 96.054 363.723 96.8228 363.3 97.5469C362.877 98.2709 362.237 98.8619 361.382 99.3175C360.526 99.7732 359.456 100 358.171 100Z" fill="black"/>
<path d="M378.984 99.7066V84.2991H373.878V82.6148H386.141V84.2991H381.036V99.7066H378.984Z" fill="black"/>
</g>
<defs>
<clipPath id="clip0_2_11">
<rect width="500" height="100" fill="white"/>
</clipPath>
</defs>
</svg>
