<svg width="31" height="21" viewBox="0 0 31 21" fill="none" xmlns="http://www.w3.org/2000/svg">
<path d="M27.5215 0.0869141H3.02989C1.35912 0.0869141 0 1.44421 0 3.11287V17.035C0 18.7036 1.35912 20.0609 3.02989 20.0609H27.5214C29.1922 20.0609 30.5513 18.7036 30.5513 17.035V3.11287C30.5513 1.44421 29.1923 0.0869141 27.5215 0.0869141ZM28.5315 3.11287V17.035C28.5315 17.1941 28.4866 17.3394 28.4205 17.4733L21.2802 10.3418L28.5294 3.10199C28.5294 3.106 28.5315 3.10891 28.5315 3.11287ZM2.01993 17.0349V3.11287C2.01993 3.10891 2.02197 3.10607 2.02197 3.10205L9.27119 10.3418L2.13043 17.4733C2.06481 17.3393 2.01993 17.1941 2.01993 17.0349ZM15.5874 13.1748C15.4207 13.3411 15.1306 13.3411 14.964 13.1748L3.87958 2.10422H26.6723L15.5874 13.1748ZM10.6993 11.7682L13.5358 14.6011C14.0009 15.0655 14.6188 15.321 15.2757 15.321C15.9325 15.321 16.5505 15.0655 17.0156 14.6011L19.8522 11.7682L26.1352 18.0436H4.4157L10.6993 11.7682Z" fill="#FCF9FB"/>
</svg>
