<svg width="1440" height="775" viewBox="0 0 1440 775" fill="none" xmlns="http://www.w3.org/2000/svg">
<path d="M0 507.895C268 207.216 197 803.481 596.5 434.268C961 39.5 1331.5 1 1440 1M0 574.421C268 273.742 197 828.023 596.5 458.81C967.5 81.5 1319.5 104.108 1440 104.108M0 640.947C268 340.268 197 852.565 596.5 483.352C996 114.14 1312 186.224 1440 207.216M0 707.474C268 406.795 197 877.107 596.5 507.895C996 138.682 1370 275.748 1440 310.323M0 774C268 473.321 197 901.649 596.5 532.437C996 163.224 1384.5 368.36 1440 413.431" stroke="#CC8DB4" stroke-opacity="0.2" stroke-width="2"/>
</svg>
