<svg width="20" height="20" viewBox="0 0 20 20" fill="none" xmlns="http://www.w3.org/2000/svg">
<path d="M9.99998 1.7995C12.6701 1.7995 12.9864 1.80965 14.0408 1.8577C15.0158 1.90214 15.5453 2.06483 15.8977 2.20156C16.3644 2.38273 16.6976 2.59919 17.0475 2.94864C17.3974 3.2981 17.6142 3.63083 17.7955 4.09696C17.9325 4.44891 18.0954 4.97772 18.1399 5.9514C18.188 7.00453 18.1982 7.32037 18.1982 9.98699C18.1982 12.6537 18.188 12.9695 18.1399 14.0226C18.0954 14.9963 17.9325 15.5251 17.7955 15.8771C17.6142 16.3432 17.3974 16.676 17.0475 17.0254C16.6976 17.3749 16.3644 17.5913 15.8977 17.7725C15.5453 17.9092 15.0158 18.0719 14.0408 18.1164C12.9865 18.1644 12.6703 18.1746 9.99998 18.1746C7.32969 18.1746 7.01344 18.1644 5.95914 18.1164C4.98415 18.0719 4.45466 17.9092 4.10229 17.7725C3.63551 17.5913 3.30235 17.3749 2.95244 17.0254C2.60253 16.676 2.38579 16.3432 2.20443 15.8771C2.06748 15.5251 1.90457 14.9963 1.86007 14.0227C1.81196 12.9695 1.8018 12.6537 1.8018 9.98699C1.8018 7.32037 1.81196 7.00453 1.86007 5.95144C1.90457 4.97772 2.06748 4.44891 2.20443 4.09696C2.38579 3.63083 2.60253 3.2981 2.95244 2.94864C3.30235 2.59919 3.63551 2.38273 4.10229 2.20156C4.45466 2.06483 4.98415 1.90214 5.9591 1.8577C7.0136 1.80965 7.32985 1.7995 9.99998 1.7995ZM9.99998 0C7.28412 0 6.94362 0.0114966 5.87701 0.0600999C4.81259 0.108623 4.08569 0.277425 3.44958 0.524324C2.79199 0.779549 2.23432 1.12104 1.67839 1.67625C1.12246 2.23145 0.780524 2.78841 0.524967 3.44514C0.277746 4.08043 0.108725 4.80638 0.060138 5.86942C0.0114719 6.9346 0 7.2747 0 9.98699C0 12.6994 0.0114719 13.0395 0.060138 14.1046C0.108725 15.1677 0.277746 15.8936 0.524967 16.5289C0.780524 17.1856 1.12246 17.7426 1.67839 18.2978C2.23432 18.853 2.79199 19.1945 3.44958 19.4497C4.08569 19.6966 4.81259 19.8654 5.87701 19.914C6.94362 19.9626 7.28412 19.974 9.99998 19.974C12.7158 19.974 13.0564 19.9626 14.1229 19.914C15.1874 19.8654 15.9143 19.6966 16.5504 19.4497C17.208 19.1945 17.7656 18.853 18.3216 18.2978C18.8775 17.7426 19.2194 17.1857 19.475 16.5289C19.7222 15.8936 19.8912 15.1677 19.9398 14.1046C19.9885 13.0395 20 12.6994 20 9.98699C20 7.2747 19.9885 6.9346 19.9398 5.86942C19.8912 4.80638 19.7222 4.08043 19.475 3.44514C19.2194 2.78841 18.8775 2.23145 18.3216 1.67625C17.7656 1.12104 17.208 0.779549 16.5504 0.524324C15.9143 0.277425 15.1874 0.108623 14.1229 0.0600999C13.0564 0.0114966 12.7158 0 9.99998 0ZM9.99998 4.85855C7.16393 4.85855 4.86483 7.15466 4.86483 9.98699C4.86483 12.8194 7.16393 15.1155 9.99998 15.1155C12.836 15.1155 15.1351 12.8194 15.1351 9.98699C15.1351 7.15466 12.836 4.85855 9.99998 4.85855ZM9.99998 13.3161C8.15904 13.3161 6.66663 11.8256 6.66663 9.98699C6.66663 8.14848 8.15904 6.658 9.99998 6.658C11.8409 6.658 13.3333 8.14848 13.3333 9.98699C13.3333 11.8256 11.8409 13.3161 9.99998 13.3161ZM16.538 4.65593C16.538 5.31782 16.0008 5.85439 15.338 5.85439C14.6753 5.85439 14.138 5.31782 14.138 4.65593C14.138 3.99404 14.6753 3.45751 15.338 3.45751C16.0008 3.45751 16.538 3.99404 16.538 4.65593Z" fill="#CC8DB4"/>
</svg>
