<svg width="20" height="21" viewBox="0 0 20 21" fill="none" xmlns="http://www.w3.org/2000/svg">
<path d="M9.99998 1.88641C12.6701 1.88641 12.9864 1.89656 14.0408 1.94461C15.0158 1.98905 15.5453 2.15174 15.8977 2.28847C16.3644 2.46964 16.6976 2.6861 17.0475 3.03555C17.3974 3.38501 17.6142 3.71774 17.7955 4.18387C17.9325 4.53582 18.0954 5.06463 18.1399 6.03831C18.188 7.09144 18.1982 7.40728 18.1982 10.0739C18.1982 12.7406 18.188 13.0564 18.1399 14.1095C18.0954 15.0832 17.9325 15.612 17.7955 15.964C17.6142 16.4301 17.3974 16.7629 17.0475 17.1123C16.6976 17.4618 16.3644 17.6782 15.8977 17.8594C15.5453 17.9961 15.0158 18.1588 14.0408 18.2033C12.9865 18.2513 12.6703 18.2615 9.99998 18.2615C7.32969 18.2615 7.01344 18.2513 5.95914 18.2033C4.98415 18.1588 4.45466 17.9961 4.10229 17.8594C3.63551 17.6782 3.30235 17.4618 2.95244 17.1123C2.60253 16.7629 2.38579 16.4301 2.20443 15.964C2.06748 15.612 1.90457 15.0832 1.86007 14.1096C1.81196 13.0564 1.8018 12.7406 1.8018 10.0739C1.8018 7.40728 1.81196 7.09144 1.86007 6.03835C1.90457 5.06463 2.06748 4.53582 2.20443 4.18387C2.38579 3.71774 2.60253 3.38501 2.95244 3.03555C3.30235 2.6861 3.63551 2.46964 4.10229 2.28847C4.45466 2.15174 4.98415 1.98905 5.9591 1.94461C7.0136 1.89656 7.32985 1.88641 9.99998 1.88641ZM9.99998 0.0869141C7.28412 0.0869141 6.94362 0.0984107 5.87701 0.147014C4.81259 0.195537 4.08569 0.364339 3.44958 0.611238C2.79199 0.866463 2.23432 1.20795 1.67839 1.76316C1.12246 2.31836 0.780524 2.87532 0.524967 3.53205C0.277746 4.16734 0.108725 4.89329 0.060138 5.95633C0.0114719 7.02151 0 7.36161 0 10.0739C0 12.7863 0.0114719 13.1264 0.060138 14.1915C0.108725 15.2546 0.277746 15.9805 0.524967 16.6158C0.780524 17.2725 1.12246 17.8295 1.67839 18.3847C2.23432 18.9399 2.79199 19.2814 3.44958 19.5366C4.08569 19.7835 4.81259 19.9523 5.87701 20.0009C6.94362 20.0495 7.28412 20.0609 9.99998 20.0609C12.7158 20.0609 13.0564 20.0495 14.1229 20.0009C15.1874 19.9523 15.9143 19.7835 16.5504 19.5366C17.208 19.2814 17.7656 18.9399 18.3216 18.3847C18.8775 17.8295 19.2194 17.2726 19.475 16.6158C19.7222 15.9805 19.8912 15.2546 19.9398 14.1915C19.9885 13.1264 20 12.7863 20 10.0739C20 7.36161 19.9885 7.02151 19.9398 5.95633C19.8912 4.89329 19.7222 4.16734 19.475 3.53205C19.2194 2.87532 18.8775 2.31836 18.3216 1.76316C17.7656 1.20795 17.208 0.866463 16.5504 0.611238C15.9143 0.364339 15.1874 0.195537 14.1229 0.147014C13.0564 0.0984107 12.7158 0.0869141 9.99998 0.0869141ZM9.99998 4.94546C7.16393 4.94546 4.86483 7.24157 4.86483 10.0739C4.86483 12.9063 7.16393 15.2024 9.99998 15.2024C12.836 15.2024 15.1351 12.9063 15.1351 10.0739C15.1351 7.24157 12.836 4.94546 9.99998 4.94546ZM9.99998 13.403C8.15904 13.403 6.66663 11.9125 6.66663 10.0739C6.66663 8.23539 8.15904 6.74491 9.99998 6.74491C11.8409 6.74491 13.3333 8.23539 13.3333 10.0739C13.3333 11.9125 11.8409 13.403 9.99998 13.403ZM16.538 4.74284C16.538 5.40473 16.0008 5.9413 15.338 5.9413C14.6753 5.9413 14.138 5.40473 14.138 4.74284C14.138 4.08095 14.6753 3.54442 15.338 3.54442C16.0008 3.54442 16.538 4.08095 16.538 4.74284Z" fill="#FCF9FB"/>
</svg>
