<svg width="58" height="42" viewBox="0 0 58 42" fill="none" xmlns="http://www.w3.org/2000/svg">
<path d="M12.3089 0.127808C13.4612 0.127808 14.6366 0.234985 15.8359 0.44934C17.0347 0.663695 18.2013 0.990297 19.3347 1.42842C20.468 1.86655 21.5359 2.41692 22.5383 3.07917C23.5404 3.74143 24.4161 4.51557 25.1657 5.40159C25.915 6.28798 26.5077 7.28806 26.9431 8.40329C27.3788 9.51815 27.5963 10.7521 27.5963 12.1049C27.5963 13.458 27.362 14.7112 26.8936 15.8637C26.4251 17.017 25.7694 18.0127 24.9265 18.8509C24.0836 19.6895 23.0766 20.3467 21.9058 20.8232C20.7347 21.2993 19.4468 21.538 18.0418 21.538C17.3765 21.538 16.688 21.488 15.9761 21.3877C15.2642 21.2878 14.5522 21.1328 13.8403 20.9231C13.1284 20.7135 12.4282 20.4539 11.7398 20.1443C11.0513 19.8347 10.3931 19.4654 9.76557 19.0367C9.02552 19.7797 8.17085 20.3586 7.20119 20.7732C6.23154 21.1878 5.20814 21.3949 4.13099 21.3949C3.55005 21.3949 3.00684 21.3283 2.50101 21.1951C1.99519 21.0615 1.55735 20.871 1.18715 20.6233C0.816942 20.3757 0.526827 20.0755 0.316095 19.7228C0.105363 19.3705 0 18.9795 0 18.5508C0 18.1793 0.0914821 17.8316 0.274093 17.5076C0.456703 17.1835 0.714066 16.8978 1.04689 16.6498C1.37937 16.4021 1.77769 16.2066 2.24116 16.0639C2.70498 15.9209 3.21295 15.8496 3.76577 15.8496C5.39573 15.8496 7.32543 16.4597 9.55484 17.6792C9.96705 17.1553 10.3041 16.5643 10.5665 15.9068C10.8566 15.1732 11.0841 14.4183 11.2482 13.6416C11.4119 12.8649 11.5571 12.0908 11.6839 11.3188C11.8102 10.5472 11.9412 9.79442 12.0772 9.06047C12.2128 8.32689 12.4004 7.63603 12.6393 6.98825C12.8781 6.34048 13.1917 5.74739 13.5808 5.2086C13.9695 4.67054 14.4778 4.21069 15.1054 3.82941C15.199 3.78198 15.2834 3.75808 15.3582 3.75808C15.4891 3.75808 15.6134 3.80588 15.7305 3.90111C15.8476 3.9967 15.906 4.12995 15.906 4.30121C15.906 4.50145 15.817 4.65388 15.639 4.75853C15.1424 5.05399 14.7373 5.42296 14.4237 5.86615C14.1098 6.30934 13.8499 6.80721 13.6438 7.35975C13.4377 7.9123 13.2736 8.50793 13.1522 9.14629C13.0301 9.78465 12.9134 10.4516 12.8009 11.1472C12.7069 11.7189 12.604 12.3167 12.4916 12.941C12.3791 13.5652 12.2388 14.1847 12.0701 14.7992C11.9014 15.4136 11.6881 16.014 11.4308 16.6002C11.1731 17.1861 10.857 17.727 10.4821 18.2223C10.5006 18.2318 10.5124 18.239 10.5174 18.2437C10.522 18.2488 10.5337 18.2557 10.5526 18.2651C11.7422 18.9892 12.9785 19.5371 14.2621 19.9089C15.5454 20.2804 16.8005 20.4666 18.0279 20.4666C19.3578 20.4666 20.5499 20.2428 21.6039 19.7949C22.6576 19.3473 23.55 18.7445 24.2808 17.987C25.0112 17.2295 25.5687 16.3456 25.9528 15.3358C26.3369 14.3259 26.5287 13.2589 26.5287 12.1342C26.5287 10.9908 26.3411 9.92586 25.9667 8.9399C25.5918 7.95358 25.0792 7.0556 24.4282 6.24598C23.7767 5.43635 23.0043 4.71653 22.1098 4.08794C21.2152 3.459 20.2502 2.93289 19.2154 2.50852C18.1803 2.08488 17.0938 1.76082 15.9555 1.53668C14.8174 1.31292 13.6769 1.20103 12.5343 1.20103C10.9979 1.20103 9.59506 1.33211 8.32604 1.59389C7.05667 1.85605 5.96563 2.23949 5.05223 2.74424C4.13917 3.24935 3.42938 3.86852 2.92355 4.60211C2.41772 5.33606 2.16498 6.16958 2.16498 7.1034C2.16498 7.63711 2.24223 8.10891 2.39672 8.51843C2.55121 8.92795 2.74806 9.28279 2.98691 9.58296C3.22576 9.88313 3.48562 10.138 3.76648 10.3477C4.04769 10.5573 4.30968 10.7264 4.55352 10.855C4.797 10.9835 5.00524 11.0766 5.17859 11.1338C5.35159 11.191 5.45269 11.2243 5.48081 11.2337C5.60255 11.2623 5.69866 11.3268 5.76879 11.4267C5.83891 11.5266 5.87415 11.6389 5.87415 11.7627C5.87415 11.9249 5.81791 12.0488 5.70542 12.1342C5.59329 12.22 5.47119 12.2628 5.3402 12.2628C5.1526 12.2628 4.91838 12.2175 4.63752 12.127C4.35631 12.0365 4.05908 11.8981 3.74512 11.7124C3.43116 11.5266 3.11755 11.2931 2.80359 11.0121C2.48963 10.7311 2.20628 10.4002 1.95354 10.0189C1.70081 9.638 1.49684 9.20422 1.34235 8.7183C1.1875 8.23238 1.11061 7.69432 1.11061 7.1034C1.11061 6.02692 1.37972 5.05761 1.91866 4.19512C2.45723 3.33299 3.21829 2.60158 4.20218 2.00124C5.18571 1.4009 6.36361 0.938881 7.73585 0.614814C9.10739 0.290022 10.632 0.127808 12.3089 0.127808ZM8.79627 18.4935C7.82199 17.9696 6.9182 17.5742 6.08453 17.3073C5.25085 17.0409 4.4873 16.9072 3.79424 16.9072C3.4009 16.9072 3.03781 16.9525 2.70534 17.043C2.37251 17.1335 2.08454 17.2552 1.84106 17.4073C1.59722 17.5597 1.40535 17.7361 1.2651 17.9359C1.12485 18.1358 1.05437 18.3458 1.05437 18.5649C1.05437 18.7745 1.11773 18.9842 1.2441 19.1938C1.37047 19.4035 1.56233 19.5892 1.82005 19.7514C2.07777 19.9136 2.3985 20.0469 2.78258 20.1515C3.16667 20.2565 3.61626 20.3087 4.13134 20.3087C5.01164 20.3087 5.85244 20.1494 6.65336 19.83C7.45428 19.5106 8.16835 19.0653 8.79627 18.4935Z" fill="white"/>
<path d="M54.1907 0C54.5093 0 54.8532 0.0358465 55.2234 0.107177C55.5932 0.178508 55.9374 0.297997 56.256 0.464556C56.5746 0.631478 56.8366 0.855609 57.0427 1.13623C57.2488 1.4172 57.352 1.7677 57.352 2.18664C57.352 2.70116 57.2043 3.16789 56.9092 3.58719C56.6145 4.00648 56.1998 4.36603 55.6658 4.6662C55.1319 4.96637 54.4926 5.19992 53.7479 5.36648C53.0032 5.5334 52.1813 5.61668 51.2818 5.61668C50.2701 5.61668 49.1741 5.54535 47.9941 5.40232C47.7787 6.08848 47.6167 6.85574 47.5092 7.70338C47.4014 8.55139 47.343 9.49462 47.3337 10.5331C47.6897 10.5237 48.0528 10.5168 48.423 10.5117C48.7928 10.507 49.1744 10.5045 49.5681 10.5045C50.0928 10.5045 50.6218 10.5117 51.1558 10.5262C51.6897 10.5403 52.2286 10.557 52.7718 10.5762C52.9309 10.5859 53.0548 10.6453 53.1442 10.755C53.2332 10.8648 53.2777 10.9908 53.2777 11.1338C53.2777 11.2862 53.2257 11.4104 53.1228 11.5053C53.0196 11.6005 52.8978 11.6483 52.7576 11.6483C52.2236 11.6483 51.6922 11.6389 51.1632 11.6197C50.6339 11.6005 50.1113 11.5911 49.5966 11.5911C49.2033 11.5911 48.8188 11.5936 48.4444 11.5983C48.0699 11.603 47.6997 11.6103 47.3344 11.6197C47.3344 11.7533 47.3366 11.8819 47.3416 12.0053C47.3465 12.1295 47.3491 12.2581 47.3491 12.3913C47.3491 13.8777 47.1287 15.1996 46.6887 16.3576C46.2484 17.5152 45.6045 18.4896 44.7565 19.2804C43.9086 20.0715 42.8667 20.6715 41.6305 21.0814C40.3938 21.4909 38.9746 21.6958 37.3727 21.6958C36.1927 21.6958 35.1458 21.5887 34.2328 21.3743C33.3194 21.1599 32.5184 20.8764 31.83 20.5238C31.1412 20.1715 30.5514 19.7735 30.0594 19.3303C29.5675 18.8871 29.1578 18.4396 28.8299 17.987C28.5021 17.5344 28.2397 17.0963 28.0432 16.6723C27.8464 16.2482 27.7011 15.884 27.6075 15.5788C27.5979 15.5501 27.5908 15.5241 27.5862 15.5002C27.5812 15.4766 27.5791 15.4502 27.5791 15.4216C27.5791 15.2786 27.6303 15.1526 27.7335 15.0429C27.8368 14.9335 27.9678 14.8785 28.1269 14.8785C28.239 14.8785 28.3401 14.9122 28.4291 14.9784C28.5181 15.0454 28.5815 15.1356 28.6188 15.25C28.7028 15.5168 28.8296 15.8362 28.9979 16.2077C29.1667 16.5792 29.3984 16.963 29.6935 17.3584C29.9886 17.7538 30.3538 18.147 30.7895 18.5374C31.2252 18.9284 31.7542 19.276 32.3771 19.5809C33.0001 19.8858 33.7212 20.1334 34.541 20.3239C35.3605 20.5147 36.3041 20.6099 37.372 20.6099C40.3134 20.6099 42.536 19.9147 44.0393 18.5232C45.5429 17.1321 46.2943 15.0787 46.2943 12.3631C46.2943 12.249 46.2918 12.1321 46.2872 12.0129C46.2822 11.8938 46.2801 11.7772 46.2801 11.6628C45.3339 11.7008 44.4629 11.7464 43.6666 11.7986C42.8703 11.8511 42.1747 11.9036 41.5799 11.9561C40.9851 12.0086 40.5049 12.0513 40.1397 12.0846C39.7744 12.1183 39.5495 12.1346 39.4651 12.1346C39.3056 12.1346 39.165 12.0893 39.0433 11.9988C38.9216 11.9083 38.8607 11.7725 38.8607 11.5915C38.8607 11.4582 38.9073 11.3413 39.0013 11.2413C39.0949 11.1414 39.2074 11.082 39.3384 11.0625C39.3476 11.0625 39.5281 11.0436 39.8795 11.0052C40.2308 10.9672 40.7156 10.922 41.3339 10.8695C41.9519 10.817 42.6827 10.7645 43.5256 10.712C44.3689 10.6598 45.2866 10.6142 46.2797 10.5762C46.2982 8.47064 46.5136 6.69823 46.9258 5.2593C45.9049 5.10722 44.8648 4.92328 43.8065 4.70893C42.7475 4.49457 41.6938 4.26827 40.6448 4.03002C39.5958 3.79177 38.5627 3.55605 37.5468 3.3225C36.5305 3.08896 35.5534 2.8775 34.6172 2.68668C33.6803 2.49622 32.8 2.34378 31.9756 2.22936C31.1512 2.11494 30.4019 2.05774 29.7277 2.05774C28.7815 2.05774 27.9008 2.1555 27.086 2.35066C26.2712 2.54619 25.5661 2.82934 24.9716 3.2012C24.3764 3.5727 23.9083 4.02785 23.5666 4.56627C23.2245 5.10469 23.0537 5.71698 23.0537 6.40277C23.0537 6.85067 23.1355 7.25331 23.2996 7.61032C23.4634 7.9677 23.6481 8.27294 23.8546 8.52495C24.0607 8.77769 24.2525 8.97285 24.4309 9.11081C24.6085 9.24913 24.7068 9.32299 24.7256 9.33241C24.81 9.3802 24.8709 9.44683 24.9086 9.53264C24.9456 9.61845 24.9648 9.70427 24.9648 9.78972C24.9648 9.95194 24.9107 10.083 24.8032 10.1826C24.6954 10.2825 24.5758 10.3329 24.4448 10.3329C24.3415 10.3329 24.2433 10.2995 24.1497 10.2329C23.9251 10.0808 23.6859 9.8806 23.4331 9.63258C23.18 9.38491 22.9483 9.10139 22.7376 8.78203C22.5268 8.46304 22.351 8.10312 22.2107 7.70302C22.0701 7.30291 22 6.86913 22 6.40241C22 5.54499 22.199 4.78279 22.5973 4.11583C22.9953 3.44887 23.5406 2.88184 24.2344 2.41511C24.9275 1.94839 25.7448 1.59318 26.6863 1.35022C27.6278 1.10726 28.6466 0.98596 29.7423 0.98596C30.3887 0.98596 31.1241 1.0457 31.9482 1.16447C32.7722 1.28396 33.6604 1.43857 34.6108 1.62903C35.5612 1.81948 36.559 2.0342 37.6034 2.27209C38.6478 2.50998 39.7136 2.75077 40.8 2.99373C41.8864 3.23669 42.9778 3.46806 44.0738 3.68712C45.1695 3.90618 46.2423 4.0923 47.2914 4.24437C47.5534 3.50137 47.9307 2.86048 48.4226 2.32206C48.9142 1.784 49.4738 1.34298 50.1017 1.00008C50.7293 0.657186 51.3967 0.40445 52.104 0.242598C52.8113 0.0811073 53.5069 0 54.1907 0ZM56.2845 2.1584C56.2845 1.92956 56.2119 1.74634 56.0667 1.60802C55.9214 1.47007 55.7413 1.36036 55.5256 1.27925C55.3102 1.1985 55.0831 1.14347 54.8443 1.11486C54.6051 1.08626 54.3876 1.07177 54.1907 1.07177C53.7411 1.07177 53.2424 1.11957 52.6942 1.2148C52.1464 1.31039 51.6032 1.48166 51.0646 1.72932C50.5257 1.97735 50.0199 2.31518 49.5468 2.74389C49.0737 3.1726 48.6875 3.7208 48.3878 4.38776C49.4275 4.50218 50.3876 4.55939 51.2682 4.55939C51.9891 4.55939 52.6565 4.50001 53.2705 4.38052C53.8839 4.26139 54.4132 4.09737 54.8582 3.88736C55.3031 3.67807 55.6519 3.42533 55.9047 3.12987C56.1581 2.83477 56.2845 2.5107 56.2845 2.1584Z" fill="white"/>
<path d="M9 33.2736V28.125H9.7086L11.5309 31.7142L13.3388 28.125H14.0545V33.2736H13.4473V29.2284L11.7552 32.5381H11.2996L9.60755 29.2356V33.2736H9Z" fill="white"/>
<path d="M17.3372 33.2736L19.2026 28.125H19.8462L21.7046 33.2736H21.061L20.5983 31.9496H18.4435L17.9737 33.2736H17.3372ZM18.624 31.4497H20.4171L19.5206 28.9047L18.624 31.4497Z" fill="white"/>
<path d="M24.987 33.2736V28.125H25.5942V30.4566L27.7059 28.125H28.4724L26.5924 30.177L28.5014 33.2736H27.7638L26.1587 30.6553L25.5945 31.2657V33.2736H24.987Z" fill="white"/>
<path d="M31.7261 33.2736V28.125H34.8572V28.6324H32.3337V30.4271H34.6403V30.9273H32.3337V32.7659H34.8572V33.2736H31.7261Z" fill="white"/>
<path d="M40.1643 33.362C39.8171 33.362 39.5028 33.2921 39.2206 33.1523C38.9384 33.0126 38.7132 32.7957 38.5447 32.5014C38.3759 32.2072 38.2917 31.832 38.2917 31.3761V28.125H38.899V31.3833C38.899 31.8834 39.017 32.2463 39.2533 32.472C39.4896 32.6976 39.798 32.8104 40.1788 32.8104C40.5596 32.8104 40.8655 32.6976 41.0969 32.472C41.3283 32.2463 41.4438 31.8834 41.4438 31.3833V28.125H42.0514V31.3761C42.0514 31.832 41.9669 32.2072 41.7984 32.5014C41.6296 32.7957 41.4031 33.0126 41.1185 33.1523C40.8338 33.2921 40.5162 33.362 40.1643 33.362Z" fill="white"/>
<path d="M45.6089 33.2736V28.125H47.2719C47.6669 28.125 47.9926 28.1911 48.248 28.3234C48.5034 28.4559 48.6925 28.6349 48.8158 28.8602C48.9384 29.0858 49 29.3409 49 29.6252C49 29.9047 48.9399 30.1573 48.8195 30.3826C48.6987 30.6083 48.5108 30.7885 48.2554 30.9232C48 31.0583 47.6718 31.1257 47.2722 31.1257H46.2164V33.2733H45.6089V33.2736ZM46.2164 30.6039H47.2578C47.6623 30.6039 47.9507 30.5168 48.1217 30.3428C48.2929 30.1689 48.3786 29.9298 48.3786 29.6255C48.3786 29.3165 48.2929 29.0752 48.1217 28.9009C47.9507 28.727 47.6626 28.6399 47.2578 28.6399H46.2164V30.6039Z" fill="white"/>
<path d="M11 41.7883L12.8658 36.6397H13.5091L15.3675 41.7883H14.7239L14.2611 40.4642H12.1063L11.6365 41.7883H11ZM12.2872 39.9644H14.0803L13.1837 37.4194L12.2872 39.9644Z" fill="white"/>
<path d="M18.6501 41.7883V36.6397H20.2845C20.6795 36.6397 21.0027 36.7058 21.2535 36.8381C21.5039 36.9706 21.6897 37.1521 21.8105 37.3824C21.931 37.6131 21.9913 37.8678 21.9913 38.1474C21.9913 38.4711 21.9057 38.7629 21.7347 39.0227C21.5634 39.2828 21.2972 39.4667 20.9355 39.5742L22.0419 41.788H21.3262L20.2993 39.6623H20.2559H19.258V41.788H18.6501V41.7883ZM19.2574 39.1772H20.2408C20.6314 39.1772 20.9155 39.0816 21.0942 38.8904C21.2723 38.6992 21.3616 38.4539 21.3616 38.1549C21.3616 37.8509 21.2735 37.6096 21.0979 37.4304C20.922 37.2514 20.6336 37.1618 20.2337 37.1618H19.2574V39.1772Z" fill="white"/>
<path d="M26.6545 41.7883V37.1471H25.1434V36.6397H28.7733V37.1471H27.2621V41.7883H26.6545Z" fill="white"/>
<path d="M32.0486 41.7883V36.6397H32.6561V41.7883H32.0486Z" fill="white"/>
<path d="M37.8693 41.8776C37.498 41.8776 37.1752 41.809 36.9 41.6717C36.6252 41.5344 36.4133 41.3433 36.2638 41.0979C36.1147 40.8528 36.0396 40.5683 36.0396 40.2445H36.6758C36.6758 40.4457 36.7213 40.6306 36.8132 40.7999C36.9047 40.9691 37.0384 41.1038 37.2146 41.2044C37.3908 41.305 37.6086 41.3552 37.869 41.3552C38.2109 41.3552 38.4765 41.2718 38.6641 41.1051C38.8521 40.9384 38.9463 40.73 38.9463 40.4799C38.9463 40.274 38.9029 40.1085 38.816 39.9835C38.7295 39.8584 38.6124 39.7566 38.4654 39.6783C38.3182 39.5999 38.1496 39.5313 37.9589 39.4724C37.7685 39.4134 37.5695 39.3473 37.3625 39.2737C36.9718 39.1364 36.6825 38.9662 36.4949 38.7625C36.307 38.5592 36.2127 38.2931 36.2127 37.9647C36.2078 37.6901 36.2706 37.446 36.4006 37.2329C36.5309 37.0195 36.7152 36.8531 36.9539 36.7327C37.1924 36.6127 37.4755 36.5526 37.8036 36.5526C38.1265 36.5526 38.4072 36.614 38.6457 36.7365C38.8841 36.859 39.0699 37.0283 39.2027 37.2439C39.3352 37.4598 39.4039 37.7049 39.4088 37.9794H38.7726C38.7726 37.8371 38.7365 37.6961 38.6638 37.5563C38.5917 37.4166 38.4821 37.3025 38.3351 37.2144C38.1881 37.1264 38.0036 37.0822 37.7818 37.0822C37.507 37.0772 37.2818 37.1483 37.1058 37.2956C36.9299 37.4426 36.8421 37.6463 36.8421 37.9061C36.8421 38.1267 36.9034 38.2959 37.0267 38.4137C37.1499 38.5316 37.3218 38.6284 37.5436 38.7043C37.7654 38.7804 38.0212 38.8675 38.3101 38.9653C38.5511 39.0534 38.768 39.1565 38.9608 39.274C39.1534 39.3915 39.304 39.5438 39.4128 39.73C39.5212 39.9164 39.5755 40.1543 39.5755 40.4435C39.5755 40.6889 39.5126 40.9205 39.3875 41.1386C39.2621 41.3567 39.073 41.5347 38.8197 41.672C38.5665 41.8093 38.2501 41.8776 37.8693 41.8776Z" fill="white"/>
<path d="M44.0297 41.7883V37.1471H42.5186V36.6397H46.1484V37.1471H44.6373V41.7883H44.0297Z" fill="white"/>
</svg>
